<svg xmlns="http://www.w3.org/2000/svg" width="60" height="61" fill="none"><path fill="#FFE8D4" d="M11.297 30.492v-7.657c0-3.096 2.478-5.616 5.523-5.616h9.54V7.523c0-3.097 2.477-5.616 5.523-5.616h7.53c3.046 0 5.525 2.52 5.525 5.616v9.698h9.539c3.045 0 5.523 2.52 5.523 5.615v7.657c0 3.096-2.478 5.616-5.523 5.616h-9.54v9.698c0 3.096-2.478 5.615-5.523 5.615h-7.531c-3.046 0-5.524-2.519-5.524-5.615v-9.698H16.82c-3.045 0-5.523-2.52-5.523-5.616ZM16.805 42.282c0 .986-.788 1.787-1.758 1.787s-1.758-.801-1.758-1.787c0-.986.787-1.787 1.758-1.787.97 0 1.758.8 1.758 1.787ZM20.805 44.615c.97 0 1.758.8 1.758 1.787 0 .986-.788 1.788-1.758 1.788s-1.758-.802-1.758-1.788.787-1.787 1.758-1.787ZM5.758 42.282c0 .987.787 1.787 1.758 1.787.97 0 1.757-.8 1.757-1.787 0-.987-.786-1.787-1.757-1.787-.97 0-1.758.8-1.758 1.787ZM11.281 47.045c3.738 0 6.78 3.092 6.78 6.893 0 2.79-2.22 5.14-5.056 5.14H9.556c-2.836 0-5.056-2.349-5.056-5.14 0-3.801 3.042-6.893 6.78-6.893ZM1.758 44.615c.97 0 1.758.8 1.758 1.787 0 .986-.788 1.788-1.758 1.788S0 47.388 0 46.402s.787-1.787 1.758-1.787Z"/></svg>