<svg aria-hidden="true" style="position: absolute; width: 0; height: 0; overflow: hidden;" version="1.1" xmlns="http://www.w3.org/2000/svg" xmlns:xlink="http://www.w3.org/1999/xlink">
<defs>
<symbol id="icon-Arrow" viewBox="0 0 84 32">
<path fill="#ff7800" style="fill: var(--color1, #ff7800)" d="M81.414 17.414c0.781-0.781 0.781-2.047 0-2.828l-12.728-12.728c-0.781-0.781-2.048-0.781-2.828 0s-0.781 2.047 0 2.828l11.314 11.314-11.314 11.314c-0.781 0.781-0.781 2.047 0 2.828s2.047 0.781 2.828 0l12.728-12.728zM0 18h80v-4h-80v4z"></path>
</symbol>
<symbol id="icon-burger" viewBox="0 0 64 32">
<path stroke-linejoin="miter" stroke-linecap="round" stroke-miterlimit="4" stroke-width="4.5714" d="M2.286 2.286h59.429"></path>
<path stroke-linejoin="miter" stroke-linecap="round" stroke-miterlimit="4" stroke-width="4.5714" d="M2.286 16h48"></path>
<path stroke-linejoin="miter" stroke-linecap="round" stroke-miterlimit="4" stroke-width="4.5714" d="M2.286 29.714h36.571"></path>
</symbol>
<symbol id="icon-fb" viewBox="0 0 32 32">
<path fill="#ffa14d" style="fill: var(--color2, #ffa14d)" d="M16 0c-3.164 0-6.258 0.938-8.889 2.696s-4.682 4.257-5.893 7.181c-1.211 2.924-1.528 6.141-0.91 9.244s2.141 5.955 4.379 8.192 5.089 3.761 8.192 4.379c3.104 0.617 6.321 0.3 9.244-0.91s5.422-3.262 7.18-5.893c1.758-2.631 2.697-5.725 2.697-8.889 0-4.244-1.686-8.313-4.686-11.314s-7.070-4.686-11.314-4.686v0zM22.104 8.148h-2.213c-1.733 0-2.071 0.825-2.071 2.035v2.667h4.138v4.179h-4.133v10.727h-4.321v-10.724h-3.608v-4.179h3.608v-3.082c0-3.577 2.185-5.524 5.375-5.524l3.225 0.005v3.897z"></path>
</symbol>
<symbol id="icon-home" viewBox="0 0 35 32">
<path fill="#ffa14d" style="fill: var(--color2, #ffa14d)" opacity="0.64" d="M34.456 13.144l-16.466-12.056c-0.155-0.113-0.341-0.174-0.533-0.174s-0.378 0.061-0.533 0.174l-16.467 12.056c-0.099 0.069-0.183 0.156-0.247 0.258s-0.108 0.215-0.128 0.334c-0.020 0.119-0.016 0.24 0.012 0.357s0.079 0.227 0.15 0.325c0.071 0.097 0.161 0.179 0.264 0.241s0.218 0.103 0.337 0.12c0.119 0.017 0.24 0.010 0.357-0.021s0.225-0.084 0.321-0.158l15.933-11.666 15.933 11.666c0.193 0.135 0.432 0.188 0.664 0.149s0.44-0.167 0.58-0.357c0.139-0.19 0.198-0.427 0.165-0.66s-0.156-0.444-0.343-0.588h0.002z"></path>
<path fill="#ffa14d" style="fill: var(--color2, #ffa14d)" opacity="0.64" d="M30.093 14.802c-0.239 0-0.469 0.095-0.638 0.264s-0.264 0.399-0.264 0.638v14.366h-7.221v-7.84c-0.022-1.182-0.508-2.308-1.351-3.136s-1.979-1.292-3.161-1.292c-1.182 0-2.317 0.464-3.161 1.292s-1.329 1.954-1.351 3.136v7.84h-7.221v-14.366c0-0.239-0.095-0.469-0.264-0.638s-0.399-0.264-0.638-0.264c-0.239 0-0.469 0.095-0.638 0.264s-0.264 0.399-0.264 0.638v15.269c0 0.239 0.095 0.469 0.264 0.638s0.399 0.264 0.638 0.264h9.026c0.227-0 0.446-0.086 0.612-0.24s0.269-0.366 0.287-0.592c0.001-0.023 0.001-0.047 0-0.070v-8.744c0-0.718 0.285-1.407 0.793-1.915s1.197-0.793 1.915-0.793 1.407 0.285 1.915 0.793c0.508 0.508 0.793 1.197 0.793 1.915v8.744c-0.001 0.023-0.001 0.046 0 0.069 0.017 0.227 0.12 0.438 0.286 0.593s0.386 0.24 0.613 0.241h9.026c0.239 0 0.469-0.095 0.638-0.264s0.264-0.399 0.264-0.638v-15.269c0-0.238-0.094-0.467-0.262-0.636s-0.396-0.265-0.634-0.267z"></path>
</symbol>
<symbol id="icon-inst" viewBox="0 0 32 32">
<path fill="#ffa14d" style="fill: var(--color2, #ffa14d)" d="M32 16c0 8.837-7.163 16-16 16s-16-7.163-16-16c0-8.837 7.163-16 16-16s16 7.163 16 16z"></path>
<path d="M15.999 5.333c2.898 0 3.26 0.011 4.397 0.064 1.136 0.053 1.909 0.231 2.59 0.496 0.704 0.271 1.297 0.638 1.89 1.23 0.542 0.533 0.962 1.178 1.23 1.89 0.263 0.679 0.443 1.454 0.496 2.59 0.050 1.137 0.064 1.499 0.064 4.397s-0.011 3.26-0.064 4.397c-0.053 1.136-0.233 1.909-0.496 2.59-0.267 0.712-0.687 1.357-1.23 1.89-0.533 0.542-1.178 0.962-1.89 1.23-0.679 0.263-1.454 0.443-2.59 0.496-1.137 0.050-1.499 0.064-4.397 0.064s-3.26-0.011-4.397-0.064c-1.136-0.053-1.909-0.233-2.59-0.496-0.712-0.267-1.357-0.687-1.89-1.23-0.542-0.533-0.962-1.178-1.23-1.89-0.265-0.679-0.443-1.454-0.496-2.59-0.050-1.137-0.064-1.499-0.064-4.397s0.011-3.26 0.064-4.397 0.231-1.909 0.496-2.59c0.267-0.712 0.687-1.357 1.23-1.89 0.533-0.543 1.178-0.962 1.89-1.23 0.681-0.265 1.453-0.443 2.59-0.496 1.137-0.050 1.499-0.064 4.397-0.064zM15.999 10.667c-1.415 0-2.771 0.562-3.771 1.562s-1.562 2.357-1.562 3.771c0 1.414 0.562 2.771 1.562 3.771s2.357 1.562 3.771 1.562c1.415 0 2.771-0.562 3.771-1.562s1.562-2.357 1.562-3.771c0-1.415-0.562-2.771-1.562-3.771s-2.357-1.562-3.771-1.562zM22.932 10.4c0-0.354-0.14-0.693-0.39-0.943s-0.589-0.391-0.943-0.391-0.693 0.14-0.943 0.391c-0.25 0.25-0.39 0.589-0.39 0.943s0.14 0.693 0.39 0.943c0.25 0.25 0.589 0.39 0.943 0.39s0.693-0.14 0.943-0.39c0.25-0.25 0.39-0.589 0.39-0.943zM15.999 12.8c0.849 0 1.663 0.337 2.263 0.937s0.937 1.414 0.937 2.263c0 0.849-0.337 1.663-0.937 2.263s-1.414 0.937-2.263 0.937c-0.849 0-1.663-0.337-2.263-0.937s-0.937-1.414-0.937-2.263c0-0.849 0.337-1.663 0.937-2.263s1.414-0.937 2.263-0.937z"></path>
</symbol>
<symbol id="icon-logo" viewBox="0 0 32 32">
<path fill="#ff7800" style="fill: var(--color1, #ff7800)" d="M32 16c0 8.837-7.163 16-16 16s-16-7.163-16-16c0-8.837 7.163-16 16-16s16 7.163 16 16z"></path>
<path fill="#000" style="fill: var(--color4, #000)" d="M1.171 0.78h30.049v30.439h-30.049v-30.439z"></path>
</symbol>
<symbol id="icon-metro" viewBox="0 0 43 32">
<path fill="#f00" style="fill: var(--color5, #f00)" opacity="0.6" d="M28.25 0l-6.917 21.096-6.916-21.096c-8.227 2.736-14.417 10.158-14.417 18.666 0 5.125 2.161 9.851 5.657 13.334h10.027l1.051-4.41c-11.979-4.541-9.714-18.613-5.372-20.91 0.515 0.15 8.069 25.216 8.069 25.216 0.103 0 0.438 0 0.848 0 0.087 0 0.412 0 0.818 0 0.147 0 0.305 0 0.466 0 0.276 0 0.562 0 0.818 0 0.41 0 0.745 0 0.848 0 0 0 7.554-25.066 8.069-25.216 4.343 2.297 6.608 16.368-5.372 20.91l1.052 4.41h10.028c3.497-3.483 5.658-8.209 5.658-13.334 0-8.508-6.19-15.93-14.417-18.666z"></path>
</symbol>
<symbol id="icon-sign" viewBox="0 0 30 32">
<path d="M20.578 13.914c0-0.665-0.539-1.205-1.204-1.205h-12.407c-0.665 0-1.205 0.539-1.205 1.205s0.539 1.204 1.205 1.204h12.407c0.665 0 1.204-0.539 1.204-1.204z"></path>
<path d="M6.966 17.528c-0.665 0-1.205 0.539-1.205 1.204s0.539 1.205 1.205 1.205h7.535c0.665 0 1.205-0.539 1.205-1.205s-0.539-1.204-1.205-1.204h-7.535z"></path>
<path d="M9.796 29.092h-4.029c-1.328 0-2.409-1.081-2.409-2.409v-21.201c0-1.328 1.081-2.409 2.409-2.409h14.81c1.328 0 2.409 1.081 2.409 2.409v7.408c0 0.665 0.539 1.205 1.204 1.205s1.205-0.539 1.205-1.205v-7.408c0-2.657-2.162-4.818-4.818-4.818h-14.81c-2.657 0-4.818 2.162-4.818 4.818v21.201c0 2.657 2.162 4.819 4.818 4.819h4.029c0.665 0 1.205-0.539 1.205-1.205s-0.539-1.205-1.205-1.205z"></path>
<path d="M27.529 18.105c-1.409-1.409-3.702-1.409-5.11-0.001l-6.613 6.599c-0.14 0.14-0.244 0.313-0.302 0.503l-1.44 4.742c-0.128 0.42-0.016 0.877 0.29 1.191 0.23 0.236 0.542 0.363 0.862 0.363 0.107 0 0.215-0.014 0.322-0.044l4.862-1.347c0.2-0.055 0.382-0.162 0.529-0.308l6.6-6.587c1.409-1.409 1.409-3.702 0-5.111zM19.451 27.874l-2.446 0.678 0.716-2.357 4.462-4.453 1.704 1.704-4.436 4.428zM25.826 21.511l-0.233 0.233-1.704-1.704 0.233-0.232c0.47-0.47 1.234-0.47 1.703 0s0.47 1.234 0.001 1.703z"></path>
<path d="M19.374 7.891h-12.407c-0.665 0-1.205 0.539-1.205 1.205s0.539 1.205 1.205 1.205h12.407c0.665 0 1.204-0.539 1.204-1.205s-0.539-1.205-1.204-1.205z"></path>
</symbol>
<symbol id="icon-vk" viewBox="0 0 32 32">
<path fill="#ffa14d" style="fill: var(--color2, #ffa14d)" d="M16 0c-3.164 0-6.258 0.938-8.889 2.696s-4.682 4.257-5.893 7.181c-1.211 2.924-1.528 6.141-0.91 9.244s2.141 5.955 4.379 8.192 5.089 3.761 8.192 4.379c3.104 0.617 6.321 0.3 9.244-0.91s5.422-3.262 7.18-5.893c1.758-2.631 2.697-5.725 2.697-8.889 0-4.244-1.686-8.313-4.686-11.314s-7.070-4.686-11.314-4.686v0zM24.116 17.733c0.772 0.701 1.508 1.441 2.204 2.217 0.304 0.348 0.568 0.728 0.789 1.133 0.304 0.589 0.029 1.236-0.498 1.271h-3.277c-0.39 0.029-0.782-0.032-1.144-0.18s-0.685-0.377-0.944-0.67c-0.453-0.461-0.874-0.954-1.311-1.431-0.173-0.2-0.372-0.376-0.59-0.525-0.083-0.073-0.182-0.125-0.289-0.151s-0.219-0.026-0.326-0c-0.107 0.026-0.206 0.078-0.289 0.151s-0.147 0.165-0.187 0.268c-0.232 0.478-0.35 1.002-0.345 1.533-0.036 0.773-0.267 0.975-1.044 1.011-1.628 0.127-3.259-0.224-4.691-1.009-1.248-0.752-2.324-1.759-3.157-2.955-1.645-2.314-3.038-4.797-4.155-7.407-0.262-0.584-0.071-0.896 0.573-0.908 1.067-0.021 2.139-0.018 3.209 0 0.2 0.002 0.394 0.068 0.554 0.188s0.278 0.287 0.337 0.479c0.568 1.423 1.298 2.775 2.175 4.031 0.219 0.346 0.497 0.65 0.823 0.898 0.063 0.065 0.143 0.112 0.231 0.135s0.181 0.022 0.268-0.004c0.087-0.026 0.166-0.075 0.227-0.142s0.103-0.15 0.121-0.239c0.107-0.27 0.171-0.556 0.189-0.846 0.099-0.986 0.082-1.981-0.052-2.963-0.020-0.28-0.136-0.546-0.327-0.752s-0.447-0.341-0.725-0.382c-0.313-0.059-0.267-0.175-0.115-0.354 0.113-0.16 0.264-0.29 0.44-0.378s0.37-0.129 0.566-0.122h3.703c0.584 0.115 0.715 0.377 0.794 0.965v4.115c-0.007 0.227 0.114 0.902 0.523 1.051 0.327 0.108 0.543-0.155 0.739-0.362 0.852-0.958 1.556-2.039 2.087-3.206 0.25-0.508 0.467-1.033 0.675-1.559 0.052-0.178 0.163-0.332 0.316-0.437s0.337-0.153 0.521-0.137l3.566 0.004c0.106-0.003 0.211 0.003 0.316 0.019 0.6 0.103 0.766 0.361 0.58 0.948-0.338 0.89-0.816 1.72-1.417 2.458-0.596 0.823-1.231 1.619-1.821 2.446-0.539 0.757-0.497 1.138 0.177 1.797z"></path>
</symbol>

<symbol id="icon-map-pin" viewBox="0 0 24 32">
<path d="M11.589 0c-6.39 0-11.589 5.199-11.589 11.589 0 7.93 10.371 19.573 10.813 20.065 0.415 0.462 1.139 0.461 1.553 0 0.442-0.492 10.813-12.134 10.813-20.065-0-6.39-5.199-11.589-11.589-11.589zM11.589 17.42c-3.215 0-5.831-2.616-5.831-5.831s2.616-5.831 5.831-5.831c3.215 0 5.831 2.616 5.831 5.831s-2.616 5.831-5.831 5.831z"></path>
</symbol>
<symbol id="icon-direction" viewBox="7 7 18 18">
<path d="M11.086 22.086l2.829 2.829 8.914-8.914-8.914-8.914-2.828 2.828 6.086 6.086z"></path>
</symbol>
</symbol>
</defs>
</svg>
