<svg aria-hidden="true" style="position: absolute; width: 0; height: 0; overflow: hidden;" version="1.1" xmlns="http://www.w3.org/2000/svg" xmlns:xlink="http://www.w3.org/1999/xlink">
<defs>
<symbol id="icon-Arrow" viewBox="0 0 84 32">
<path d="M81.414 17.414c0.781-0.781 0.781-2.047 0-2.828l-12.728-12.728c-0.781-0.781-2.048-0.781-2.828 0s-0.781 2.047 0 2.828l11.314 11.314-11.314 11.314c-0.781 0.781-0.781 2.047 0 2.828s2.047 0.781 2.828 0l12.728-12.728zM0 18h80v-4h-80v4z"></path>
</symbol>
<symbol id="icon-burger" viewBox="0 0 64 32">
<path stroke-linejoin="miter" stroke-linecap="round" stroke-miterlimit="4" stroke-width="4.5714" d="M2.286 2.286h59.429"></path>
<path stroke-linejoin="miter" stroke-linecap="round" stroke-miterlimit="4" stroke-width="4.5714" d="M2.286 16h48"></path>
<path stroke-linejoin="miter" stroke-linecap="round" stroke-miterlimit="4" stroke-width="4.5714" d="M2.286 29.714h36.571"></path>
</symbol>

<symbol id="icon-home" viewBox="0 0 35 32">
<path fill="#ffa14d" style="fill: var(--color2, #ffa14d)" opacity="0.64" d="M34.456 13.144l-16.466-12.056c-0.155-0.113-0.341-0.174-0.533-0.174s-0.378 0.061-0.533 0.174l-16.467 12.056c-0.099 0.069-0.183 0.156-0.247 0.258s-0.108 0.215-0.128 0.334c-0.020 0.119-0.016 0.24 0.012 0.357s0.079 0.227 0.15 0.325c0.071 0.097 0.161 0.179 0.264 0.241s0.218 0.103 0.337 0.12c0.119 0.017 0.24 0.010 0.357-0.021s0.225-0.084 0.321-0.158l15.933-11.666 15.933 11.666c0.193 0.135 0.432 0.188 0.664 0.149s0.44-0.167 0.58-0.357c0.139-0.19 0.198-0.427 0.165-0.66s-0.156-0.444-0.343-0.588h0.002z"></path>
<path fill="#ffa14d" style="fill: var(--color2, #ffa14d)" opacity="0.64" d="M30.093 14.802c-0.239 0-0.469 0.095-0.638 0.264s-0.264 0.399-0.264 0.638v14.366h-7.221v-7.84c-0.022-1.182-0.508-2.308-1.351-3.136s-1.979-1.292-3.161-1.292c-1.182 0-2.317 0.464-3.161 1.292s-1.329 1.954-1.351 3.136v7.84h-7.221v-14.366c0-0.239-0.095-0.469-0.264-0.638s-0.399-0.264-0.638-0.264c-0.239 0-0.469 0.095-0.638 0.264s-0.264 0.399-0.264 0.638v15.269c0 0.239 0.095 0.469 0.264 0.638s0.399 0.264 0.638 0.264h9.026c0.227-0 0.446-0.086 0.612-0.24s0.269-0.366 0.287-0.592c0.001-0.023 0.001-0.047 0-0.070v-8.744c0-0.718 0.285-1.407 0.793-1.915s1.197-0.793 1.915-0.793 1.407 0.285 1.915 0.793c0.508 0.508 0.793 1.197 0.793 1.915v8.744c-0.001 0.023-0.001 0.046 0 0.069 0.017 0.227 0.12 0.438 0.286 0.593s0.386 0.24 0.613 0.241h9.026c0.239 0 0.469-0.095 0.638-0.264s0.264-0.399 0.264-0.638v-15.269c0-0.238-0.094-0.467-0.262-0.636s-0.396-0.265-0.634-0.267z"></path>
</symbol>
<symbol id="icon-inst" viewBox="0 0 32 32">
<path d="M16 2.881c4.275 0 4.781 0.019 6.462 0.094 1.563 0.069 2.406 0.331 2.969 0.55 0.744 0.288 1.281 0.638 1.837 1.194 0.563 0.563 0.906 1.094 1.2 1.838 0.219 0.563 0.481 1.412 0.55 2.969 0.075 1.688 0.094 2.194 0.094 6.463s-0.019 4.781-0.094 6.463c-0.069 1.563-0.331 2.406-0.55 2.969-0.288 0.744-0.637 1.281-1.194 1.837-0.563 0.563-1.094 0.906-1.837 1.2-0.563 0.219-1.413 0.481-2.969 0.55-1.688 0.075-2.194 0.094-6.463 0.094s-4.781-0.019-6.463-0.094c-1.563-0.069-2.406-0.331-2.969-0.55-0.744-0.288-1.281-0.637-1.838-1.194-0.563-0.563-0.906-1.094-1.2-1.837-0.219-0.563-0.481-1.413-0.55-2.969-0.075-1.688-0.094-2.194-0.094-6.463s0.019-4.781 0.094-6.463c0.069-1.563 0.331-2.406 0.55-2.969 0.288-0.744 0.638-1.281 1.194-1.838 0.563-0.563 1.094-0.906 1.838-1.2 0.563-0.219 1.412-0.481 2.969-0.55 1.681-0.075 2.188-0.094 6.463-0.094zM16 0c-4.344 0-4.887 0.019-6.594 0.094-1.7 0.075-2.869 0.35-3.881 0.744-1.056 0.412-1.95 0.956-2.837 1.85-0.894 0.888-1.438 1.781-1.85 2.831-0.394 1.019-0.669 2.181-0.744 3.881-0.075 1.713-0.094 2.256-0.094 6.6s0.019 4.887 0.094 6.594c0.075 1.7 0.35 2.869 0.744 3.881 0.413 1.056 0.956 1.95 1.85 2.837 0.887 0.887 1.781 1.438 2.831 1.844 1.019 0.394 2.181 0.669 3.881 0.744 1.706 0.075 2.25 0.094 6.594 0.094s4.888-0.019 6.594-0.094c1.7-0.075 2.869-0.35 3.881-0.744 1.050-0.406 1.944-0.956 2.831-1.844s1.438-1.781 1.844-2.831c0.394-1.019 0.669-2.181 0.744-3.881 0.075-1.706 0.094-2.25 0.094-6.594s-0.019-4.887-0.094-6.594c-0.075-1.7-0.35-2.869-0.744-3.881-0.394-1.063-0.938-1.956-1.831-2.844-0.887-0.887-1.781-1.438-2.831-1.844-1.019-0.394-2.181-0.669-3.881-0.744-1.712-0.081-2.256-0.1-6.6-0.1v0z"></path>
<path d="M16 7.781c-4.537 0-8.219 3.681-8.219 8.219s3.681 8.219 8.219 8.219 8.219-3.681 8.219-8.219c0-4.537-3.681-8.219-8.219-8.219zM16 21.331c-2.944 0-5.331-2.387-5.331-5.331s2.387-5.331 5.331-5.331c2.944 0 5.331 2.387 5.331 5.331s-2.387 5.331-5.331 5.331z"></path>
<path d="M26.462 7.456c0 1.060-0.859 1.919-1.919 1.919s-1.919-0.859-1.919-1.919c0-1.060 0.859-1.919 1.919-1.919s1.919 0.859 1.919 1.919z"></path>
</symbol>
<symbol id="icon-logo" viewBox="0 0 32 32">
<path fill="#ff7800" style="fill: var(--color1, #ff7800)" d="M32 16c0 8.837-7.163 16-16 16s-16-7.163-16-16c0-8.837 7.163-16 16-16s16 7.163 16 16z"></path>
<path fill="#000" style="fill: var(--color4, #000)" d="M1.171 0.78h30.049v30.439h-30.049v-30.439z"></path>
</symbol>
<symbol id="icon-metro" viewBox="0 0 43 32">
<path fill="#f00" style="fill: var(--color5, #f00)" opacity="0.6" d="M28.25 0l-6.917 21.096-6.916-21.096c-8.227 2.736-14.417 10.158-14.417 18.666 0 5.125 2.161 9.851 5.657 13.334h10.027l1.051-4.41c-11.979-4.541-9.714-18.613-5.372-20.91 0.515 0.15 8.069 25.216 8.069 25.216 0.103 0 0.438 0 0.848 0 0.087 0 0.412 0 0.818 0 0.147 0 0.305 0 0.466 0 0.276 0 0.562 0 0.818 0 0.41 0 0.745 0 0.848 0 0 0 7.554-25.066 8.069-25.216 4.343 2.297 6.608 16.368-5.372 20.91l1.052 4.41h10.028c3.497-3.483 5.658-8.209 5.658-13.334 0-8.508-6.19-15.93-14.417-18.666z"></path>
</symbol>
<symbol id="icon-sign" viewBox="0 0 30 32">
<path d="M20.578 13.914c0-0.665-0.539-1.205-1.204-1.205h-12.407c-0.665 0-1.205 0.539-1.205 1.205s0.539 1.204 1.205 1.204h12.407c0.665 0 1.204-0.539 1.204-1.204z"></path>
<path d="M6.966 17.528c-0.665 0-1.205 0.539-1.205 1.204s0.539 1.205 1.205 1.205h7.535c0.665 0 1.205-0.539 1.205-1.205s-0.539-1.204-1.205-1.204h-7.535z"></path>
<path d="M9.796 29.092h-4.029c-1.328 0-2.409-1.081-2.409-2.409v-21.201c0-1.328 1.081-2.409 2.409-2.409h14.81c1.328 0 2.409 1.081 2.409 2.409v7.408c0 0.665 0.539 1.205 1.204 1.205s1.205-0.539 1.205-1.205v-7.408c0-2.657-2.162-4.818-4.818-4.818h-14.81c-2.657 0-4.818 2.162-4.818 4.818v21.201c0 2.657 2.162 4.819 4.818 4.819h4.029c0.665 0 1.205-0.539 1.205-1.205s-0.539-1.205-1.205-1.205z"></path>
<path d="M27.529 18.105c-1.409-1.409-3.702-1.409-5.11-0.001l-6.613 6.599c-0.14 0.14-0.244 0.313-0.302 0.503l-1.44 4.742c-0.128 0.42-0.016 0.877 0.29 1.191 0.23 0.236 0.542 0.363 0.862 0.363 0.107 0 0.215-0.014 0.322-0.044l4.862-1.347c0.2-0.055 0.382-0.162 0.529-0.308l6.6-6.587c1.409-1.409 1.409-3.702 0-5.111zM19.451 27.874l-2.446 0.678 0.716-2.357 4.462-4.453 1.704 1.704-4.436 4.428zM25.826 21.511l-0.233 0.233-1.704-1.704 0.233-0.232c0.47-0.47 1.234-0.47 1.703 0s0.47 1.234 0.001 1.703z"></path>
<path d="M19.374 7.891h-12.407c-0.665 0-1.205 0.539-1.205 1.205s0.539 1.205 1.205 1.205h12.407c0.665 0 1.204-0.539 1.204-1.205s-0.539-1.205-1.204-1.205z"></path>
</symbol>

<symbol id="icon-map-pin" viewBox="0 0 24 32">
<path d="M11.589 0c-6.39 0-11.589 5.199-11.589 11.589 0 7.93 10.371 19.573 10.813 20.065 0.415 0.462 1.139 0.461 1.553 0 0.442-0.492 10.813-12.134 10.813-20.065-0-6.39-5.199-11.589-11.589-11.589zM11.589 17.42c-3.215 0-5.831-2.616-5.831-5.831s2.616-5.831 5.831-5.831c3.215 0 5.831 2.616 5.831 5.831s-2.616 5.831-5.831 5.831z"></path>
</symbol>
<symbol id="icon-direction" viewBox="7 7 18 18">
<path d="M11.086 22.086l2.829 2.829 8.914-8.914-8.914-8.914-2.828 2.828 6.086 6.086z"></path>
</symbol>

<symbol id="icon-chek-box" viewBox="0 0 32 32">
<path fill="#ff7800" style="fill: var(--color1, #ff7800)" d="M10.667 0h10.667c5.891 0 10.667 4.776 10.667 10.667v10.667c0 5.891-4.776 10.667-10.667 10.667h-10.667c-5.891 0-10.667-4.776-10.667-10.667v-10.667c0-5.891 4.776-10.667 10.667-10.667z"></path>
<path fill="#fff" style="fill: var(--color2, #fff)" d="M25.724 12.337c0.521-0.521 0.521-1.365 0-1.886l-1.508-1.508c-0.521-0.521-1.365-0.521-1.886 0l-8.754 8.754-3.906-3.906c-0.521-0.521-1.365-0.521-1.886 0l-1.508 1.508c-0.521 0.521-0.521 1.365 0 1.886l7.3 7.3 12.148-12.148z"></path>
</symbol>

<symbol id="icon-vk" viewBox="0 0 20 20">
<path d="M17.802 12.298c0 0 1.617 1.597 2.017 2.336 0.011 0.016 0.016 0.028 0.018 0.035 0.163 0.273 0.203 0.487 0.123 0.645-0.135 0.261-0.592 0.392-0.747 0.403 0 0-2.778 0-2.858 0-0.199 0-0.613-0.052-1.117-0.4-0.385-0.269-0.768-0.712-1.139-1.145-0.554-0.643-1.033-1.201-1.518-1.201-0.062 0-0.122 0.010-0.18 0.030-0.367 0.116-0.833 0.639-0.833 2.032 0 0.436-0.344 0.684-0.585 0.684 0 0-1.248 0-1.309 0-0.446 0-2.768-0.156-4.827-2.327-2.523-2.658-4.789-7.99-4.811-8.037-0.141-0.345 0.155-0.533 0.475-0.533h2.886c0.387 0 0.513 0.234 0.601 0.444 0.102 0.241 0.48 1.205 1.1 2.288 1.004 1.762 1.621 2.479 2.114 2.479 0.093 0 0.181-0.023 0.264-0.070 0.644-0.354 0.524-2.654 0.494-3.128 0-0.092-0.001-1.027-0.331-1.479-0.236-0.324-0.638-0.45-0.881-0.496 0.065-0.094 0.203-0.238 0.38-0.323 0.441-0.22 1.238-0.252 2.029-0.252h0.439c0.858 0.012 1.080 0.067 1.392 0.146 0.628 0.15 0.64 0.557 0.585 1.943-0.016 0.396-0.033 0.842-0.033 1.367 0 0.112-0.005 0.237-0.005 0.364-0.019 0.711-0.044 1.512 0.458 1.841 0.064 0.040 0.139 0.062 0.217 0.062 0.174 0 0.695 0 2.108-2.425 0.62-1.071 1.1-2.334 1.133-2.429 0.028-0.053 0.112-0.202 0.214-0.262 0.078-0.048 0.182-0.056 0.236-0.056h3.395c0.37 0 0.621 0.056 0.67 0.196 0.082 0.227-0.016 0.92-1.566 3.016-0.261 0.349-0.49 0.651-0.691 0.915-1.405 1.844-1.405 1.937 0.083 3.337z"></path>
</symbol>

<symbol id="icon-fb" viewBox="0 0 32 32">
<path d="M19 6h5v-6h-5c-3.86 0-7 3.14-7 7v3h-4v6h4v16h6v-16h5l1-6h-6v-3c0-0.542 0.458-1 1-1z"></path>
</symbol>
</defs>
</svg>
